<svg width="16" height="16" viewBox="0 0 16 16" fill="none" xmlns="http://www.w3.org/2000/svg">
    <path d="M8 0C3.582 0 0 3.582 0 8c0 3.535 2.29 6.525 5.469 7.573.4.074.547-.174.547-.386 0-.19-.007-.692-.011-1.36-2.225.482-2.695-1.076-2.695-1.076-.364-.924-.887-1.168-.887-1.168-.725-.496.055-.486.055-.486.803.057 1.223.826 1.223.826.713 1.22 1.87.868 2.327.662.072-.515.277-.868.504-1.068-1.773-.202-3.637-.887-3.637-3.943 0-.872.303-1.587.803-2.147-.08-.202-.351-1.016.078-2.118 0 0 .672-.216 2.2.821.638-.178 1.317-.266 1.993-.269.676.003 1.355.09 1.994.269 1.525-1.037 2.197-.821 2.197-.821.43 1.102.16 1.916.08 2.118.5.56.802 1.275.802 2.147 0 3.064-1.867 3.738-3.646 3.934.286.246.543.731.543 1.475 0 1.064-.01 1.921-.01 2.187 0 .214.145.465.55.386C13.708 14.519 16 11.53 16 8c0-4.418-3.582-8-8-8z" fill="white"/>
  </svg>
  